<svg width="38" height="32" viewBox="0 0 38 32" fill="none" xmlns="http://www.w3.org/2000/svg">
<path d="M14.6504 0.598314C15.6977 -0.255968 17.2424 -0.195245 18.2188 0.780931C19.1949 1.7571 19.2562 3.3019 18.4024 4.34929L18.2188 4.55242L9.43751 13.3337H35L35.2725 13.3473C36.6171 13.4838 37.6668 14.6191 37.667 15.9997C37.667 17.3805 36.6172 18.5165 35.2725 18.653L35 18.6667H9.43848L18.2188 27.4479L18.4024 27.6501C19.2566 28.6975 19.1951 30.2431 18.2188 31.2194C17.2425 32.1954 15.6977 32.2561 14.6504 31.402L14.4473 31.2194L1.11426 17.8854C0.0730296 16.844 0.072921 15.1553 1.11426 14.1139L14.4473 0.780931L14.6504 0.598314Z" fill="white"/>
</svg>
