<svg width="38" height="32" viewBox="0 0 38 32" fill="none" xmlns="http://www.w3.org/2000/svg">
<path d="M19.7812 0.780923C20.7576 -0.195253 22.3023 -0.255976 23.3496 0.598306L23.5527 0.780923L36.8857 14.1139C37.9271 15.1553 37.927 16.844 36.8857 17.8854L23.5527 31.2194C22.5114 32.2607 20.8227 32.2605 19.7812 31.2194C18.7399 30.178 18.7399 28.4893 19.7812 27.4479L28.5615 18.6667H3C1.52724 18.6667 0.333008 17.4724 0.333008 15.9997C0.333184 14.5271 1.52735 13.3337 3 13.3337H28.5625L19.7812 4.55241L19.5977 4.34928C18.7438 3.30189 18.8051 1.75709 19.7812 0.780923Z" fill="white"/>
</svg>
