<svg width="125" height="82" viewBox="0 0 125 82" fill="none" xmlns="http://www.w3.org/2000/svg">
<path d="M3.06 81.96L0.639999 76.47C1.16 76.24 52.06 53.24 43.69 11.37L41.42 0.0299988L78.01 43.05L73.44 46.94L50.61 20.11C50.77 35.89 43.64 50.9 29.64 63.99C17.1 75.71 3.62 81.72 3.05 81.97L3.06 81.96Z" fill="#039344"/>
<path d="M26.08 81.96L23.66 76.47C24.18 76.24 75.08 53.24 66.71 11.37L64.44 0.0299988L101.03 43.05L96.46 46.94L73.63 20.11C73.79 35.89 66.66 50.9 52.66 63.99C40.12 75.71 26.64 81.72 26.07 81.97L26.08 81.96Z" fill="black"/>
<path d="M49.1 81.96L46.68 76.47C47.2 76.24 98.1 53.24 89.73 11.37L87.46 0.0299988L124.05 43.05L119.48 46.94L96.65 20.11C96.81 35.89 89.68 50.9 75.68 63.99C63.14 75.71 49.66 81.72 49.09 81.97L49.1 81.96Z" fill="#D02634"/>
</svg>
