<?xml version="1.0" encoding="UTF-8"?>
<svg id="Layer_1" data-name="Layer 1" xmlns="http://www.w3.org/2000/svg" viewBox="0 0 324 84">
  <defs>
    <style>
      .cls-1 {
        fill: #039344;
      }

      .cls-2 {
        fill: #d02634;
      }
    </style>
  </defs>
  <g>
    <path d="M103.27,54.52c1.61,0,2.98.23,4.1.7,1.13.47,2.05,1.09,2.75,1.85.71.77,1.22,1.64,1.55,2.63.32.98.49,2,.49,3.06s-.16,2.05-.49,3.04c-.32,1-.84,1.88-1.55,2.65-.71.77-1.63,1.39-2.75,1.85-1.13.47-2.5.7-4.1.7h-5.94v9.22h-5.65v-25.7h11.59ZM101.73,66.62c.65,0,1.27-.05,1.87-.14.6-.1,1.13-.28,1.58-.56.46-.28.82-.67,1.1-1.17s.41-1.16.41-1.98-.14-1.48-.41-1.98c-.28-.5-.64-.89-1.1-1.17s-.98-.46-1.58-.56c-.6-.1-1.22-.14-1.87-.14h-4.39v7.7h4.39Z"/>
    <path d="M114.94,67.34c.07-1.2.37-2.2.9-2.99.53-.79,1.2-1.43,2.02-1.91.82-.48,1.73-.82,2.75-1.03,1.02-.2,2.05-.31,3.08-.31.94,0,1.88.07,2.84.2.96.13,1.84.39,2.63.77.79.38,1.44.92,1.94,1.6s.76,1.59.76,2.72v9.68c0,.84.05,1.64.14,2.41.1.77.26,1.34.5,1.73h-5.18c-.1-.29-.17-.58-.23-.88s-.1-.61-.13-.92c-.82.84-1.78,1.43-2.88,1.76-1.1.34-2.23.5-3.38.5-.89,0-1.72-.11-2.48-.32s-1.44-.55-2.02-1.01c-.58-.46-1.03-1.03-1.35-1.73s-.49-1.52-.49-2.48c0-1.06.19-1.93.56-2.61.37-.68.85-1.23,1.44-1.64s1.26-.71,2.02-.92c.76-.2,1.52-.37,2.29-.49.77-.12,1.52-.22,2.27-.29.74-.07,1.4-.18,1.98-.32.58-.14,1.03-.35,1.37-.63s.49-.68.47-1.21c0-.55-.09-.99-.27-1.31-.18-.32-.42-.58-.72-.76s-.65-.3-1.04-.36c-.4-.06-.82-.09-1.28-.09-1.01,0-1.8.22-2.38.65s-.91,1.15-1.01,2.16h-5.11v.03ZM126.75,71.12c-.22.19-.49.34-.81.45-.32.11-.67.2-1.04.27s-.76.13-1.17.18c-.41.05-.82.11-1.22.18-.38.07-.76.17-1.13.29-.37.12-.7.28-.97.49-.28.2-.5.46-.67.77s-.25.71-.25,1.19.08.84.25,1.15.4.56.68.74c.29.18.62.31,1.01.38.38.07.78.11,1.19.11,1.01,0,1.79-.17,2.34-.5.55-.34.96-.74,1.22-1.21s.43-.94.49-1.42c.06-.48.09-.86.09-1.15v-1.91h0Z"/>
    <path d="M140.68,61.61v3.46h.07c.24-.58.56-1.11.97-1.6s.88-.91,1.4-1.26c.53-.35,1.09-.62,1.69-.81s1.22-.29,1.87-.29c.34,0,.71.06,1.12.18v4.75c-.24-.05-.53-.09-.86-.13-.34-.04-.66-.05-.97-.05-.94,0-1.73.16-2.38.47-.65.31-1.17.74-1.57,1.28s-.68,1.17-.85,1.89c-.17.72-.25,1.5-.25,2.34v8.39h-5.11v-18.61h4.87Z"/>
    <path d="M158.07,64.96c-.82,0-1.5.19-2.05.56s-1,.85-1.35,1.44-.59,1.24-.74,1.94-.22,1.41-.22,2.11.07,1.36.22,2.05c.14.7.38,1.33.7,1.89.32.56.76,1.03,1.31,1.39s1.22.54,2.02.54c1.22,0,2.17-.34,2.83-1.03.66-.68,1.07-1.6,1.24-2.75h4.93c-.34,2.47-1.3,4.36-2.88,5.65s-3.61,1.94-6.08,1.94c-1.39,0-2.67-.23-3.83-.7s-2.15-1.12-2.97-1.96c-.82-.84-1.45-1.84-1.91-3.01-.46-1.16-.68-2.44-.68-3.83s.21-2.78.63-4.01c.42-1.24,1.04-2.3,1.85-3.2.82-.9,1.81-1.6,2.99-2.11,1.18-.5,2.52-.76,4.03-.76,1.1,0,2.17.14,3.19.43s1.93.73,2.74,1.31c.8.59,1.46,1.32,1.96,2.2s.79,1.91.86,3.11h-5c-.34-2.14-1.6-3.2-3.78-3.2h-.01Z"/>
    <path d="M174.95,54.52v9.68h.11c.65-1.08,1.48-1.87,2.48-2.36,1.01-.49,1.99-.74,2.95-.74,1.37,0,2.49.19,3.37.56.88.37,1.57.89,2.07,1.55s.86,1.46,1.06,2.41.31,2,.31,3.15v11.45h-5.11v-10.51c0-1.54-.24-2.68-.72-3.44-.48-.76-1.33-1.13-2.56-1.13-1.39,0-2.4.41-3.02,1.24-.62.83-.94,2.19-.94,4.09v9.76h-5.11v-25.7h5.11Z"/>
    <path d="M191.33,58.73v-4.21h5.11v4.21h-5.11,0ZM196.44,61.61v18.61h-5.11v-18.61h5.11Z"/>
    <path d="M223.69,77.85c-.6,1.01-1.39,1.73-2.36,2.18-.97.44-2.07.67-3.29.67-1.39,0-2.62-.27-3.67-.81-1.06-.54-1.93-1.27-2.61-2.2-.68-.92-1.2-1.98-1.55-3.19-.35-1.2-.52-2.45-.52-3.74s.17-2.45.52-3.62c.35-1.16.86-2.19,1.55-3.08.68-.89,1.54-1.6,2.57-2.14s2.23-.81,3.6-.81c1.1,0,2.15.23,3.15.7s1.78,1.16,2.36,2.07h.07v-9.36h5.11v25.7h-4.86v-2.38h-.07ZM223.48,68.65c-.14-.71-.39-1.33-.74-1.87-.35-.54-.8-.98-1.35-1.31-.55-.34-1.25-.5-2.09-.5s-1.55.17-2.12.5c-.58.34-1.04.78-1.39,1.33s-.6,1.18-.76,1.89-.23,1.45-.23,2.21c0,.72.08,1.44.25,2.16s.44,1.36.81,1.93.84,1.02,1.4,1.37c.56.35,1.24.52,2.03.52.84,0,1.54-.17,2.11-.5.56-.34,1.01-.79,1.35-1.35.34-.56.58-1.21.72-1.93.14-.72.22-1.46.22-2.23s-.07-1.51-.22-2.21h.01Z"/>
    <path d="M238.09,54.52v5.51c.02.79-.09,1.54-.34,2.23-.25.7-.61,1.31-1.06,1.84-.46.53-1,.97-1.64,1.31-.64.35-1.33.57-2.07.67v-2.38c.91-.31,1.54-.77,1.87-1.39.34-.61.5-1.36.5-2.25h-2.38v-5.54h5.12Z"/>
    <path d="M248.68,54.52v25.7h-5.65v-25.7h5.65Z"/>
    <path d="M263.33,61.61v3.42h-3.74v9.22c0,.86.14,1.44.43,1.73.29.29.86.43,1.73.43.29,0,.56,0,.83-.04.26-.02.52-.06.76-.11v3.96c-.43.07-.91.12-1.44.14s-1.04.04-1.55.04c-.79,0-1.54-.05-2.25-.16s-1.33-.32-1.87-.63-.97-.76-1.28-1.33c-.31-.58-.47-1.33-.47-2.27v-10.98h-3.1v-3.42h3.1v-5.58h5.11v5.58h3.74Z"/>
    <path d="M265.56,67.34c.07-1.2.37-2.2.9-2.99.53-.79,1.2-1.43,2.02-1.91.82-.48,1.73-.82,2.75-1.03,1.02-.2,2.04-.31,3.08-.31.94,0,1.88.07,2.84.2.96.13,1.84.39,2.63.77s1.44.92,1.94,1.6c.5.68.76,1.59.76,2.72v9.68c0,.84.05,1.64.14,2.41.1.77.26,1.34.5,1.73h-5.18c-.1-.29-.17-.58-.23-.88s-.1-.61-.13-.92c-.82.84-1.78,1.43-2.88,1.76-1.1.34-2.23.5-3.38.5-.89,0-1.72-.11-2.48-.32-.77-.22-1.44-.55-2.02-1.01s-1.03-1.03-1.35-1.73-.49-1.52-.49-2.48c0-1.06.19-1.93.56-2.61s.85-1.23,1.44-1.64,1.26-.71,2.02-.92c.76-.2,1.52-.37,2.29-.49.77-.12,1.52-.22,2.27-.29.74-.07,1.4-.18,1.98-.32s1.03-.35,1.37-.63.49-.68.47-1.21c0-.55-.09-.99-.27-1.31-.18-.32-.42-.58-.72-.76s-.65-.3-1.04-.36c-.4-.06-.82-.09-1.28-.09-1.01,0-1.8.22-2.38.65-.58.43-.91,1.15-1.01,2.16h-5.11v.03ZM277.37,71.12c-.22.19-.49.34-.81.45s-.67.2-1.04.27-.76.13-1.17.18c-.41.05-.82.11-1.22.18-.38.07-.76.17-1.13.29s-.7.28-.97.49c-.28.2-.5.46-.67.77s-.25.71-.25,1.19.08.84.25,1.15.4.56.68.74c.29.18.62.31,1.01.38.38.07.78.11,1.19.11,1.01,0,1.79-.17,2.34-.5.55-.34.96-.74,1.22-1.21s.43-.94.49-1.42.09-.86.09-1.15v-1.91h0Z"/>
    <path d="M291.7,54.52v25.7h-5.11v-25.7h5.11Z"/>
    <path d="M295.87,58.73v-4.21h5.11v4.21h-5.11ZM300.98,61.61v18.61h-5.11v-18.61h5.11Z"/>
    <path d="M304.8,67.34c.07-1.2.37-2.2.9-2.99.53-.79,1.2-1.43,2.02-1.91.82-.48,1.73-.82,2.75-1.03,1.02-.2,2.04-.31,3.08-.31.94,0,1.88.07,2.84.2.96.13,1.84.39,2.63.77s1.44.92,1.94,1.6c.5.68.76,1.59.76,2.72v9.68c0,.84.05,1.64.14,2.41.1.77.26,1.34.5,1.73h-5.18c-.1-.29-.17-.58-.23-.88s-.1-.61-.13-.92c-.82.84-1.78,1.43-2.88,1.76-1.1.34-2.23.5-3.38.5-.89,0-1.72-.11-2.48-.32-.77-.22-1.44-.55-2.02-1.01s-1.03-1.03-1.35-1.73-.49-1.52-.49-2.48c0-1.06.19-1.93.56-2.61s.85-1.23,1.44-1.64,1.26-.71,2.02-.92c.76-.2,1.52-.37,2.29-.49.77-.12,1.52-.22,2.27-.29.74-.07,1.4-.18,1.98-.32s1.03-.35,1.37-.63.49-.68.47-1.21c0-.55-.09-.99-.27-1.31-.18-.32-.42-.58-.72-.76s-.65-.3-1.04-.36c-.4-.06-.82-.09-1.28-.09-1.01,0-1.8.22-2.38.65-.58.43-.91,1.15-1.01,2.16h-5.11v.03ZM316.61,71.12c-.22.19-.49.34-.81.45s-.67.2-1.04.27-.76.13-1.17.18c-.41.05-.82.11-1.22.18-.38.07-.76.17-1.13.29s-.7.28-.97.49c-.28.2-.5.46-.67.77s-.25.71-.25,1.19.08.84.25,1.15.4.56.68.74c.29.18.62.31,1.01.38.38.07.78.11,1.19.11,1.01,0,1.79-.17,2.34-.5.55-.34.96-.74,1.22-1.21s.43-.94.49-1.42.09-.86.09-1.15v-1.91h0Z"/>
  </g>
  <g>
    <path class="cls-1" d="M4.06,82.96l-2.42-5.49c.52-.23,51.42-23.23,43.05-65.1l-2.27-11.34,36.59,43.02-4.57,3.89-22.83-26.83c.16,15.78-6.97,30.79-20.97,43.88-12.54,11.72-26.02,17.73-26.59,17.98Z"/>
    <path d="M27.08,82.96l-2.42-5.49c.52-.23,51.42-23.23,43.05-65.1l-2.27-11.34,36.59,43.02-4.57,3.89-22.83-26.83c.16,15.78-6.97,30.79-20.97,43.88-12.54,11.72-26.02,17.73-26.59,17.98Z"/>
    <path class="cls-2" d="M50.1,82.96l-2.42-5.49c.52-.23,51.42-23.23,43.05-65.1l-2.27-11.34,36.59,43.02-4.57,3.89-22.83-26.83c.16,15.78-6.97,30.79-20.97,43.88-12.54,11.72-26.02,17.73-26.59,17.98Z"/>
  </g>
</svg>